<svg viewBoxSize="575" data-root-id="5895497596571" xmlns="http://www.w3.org/2000/svg" xmlns:xlink="http://www.w3.org/1999/xlink" version="1.1" id="Layer_1" x="107.344" y="229.487" viewBox="233.87997436523438 280.9881896972656 532.239990234375 438.0219421386719" xml:space="preserve" height="116.02581872142402" width="140.98292541503906" preserveAspectRatio="xMinYMin" zoom="1" editorType="buyer" data-layer-role="icon" style="position: absolute; height: 116.026px; width: 140.983px; top: 229.487px; left: 107.344px; transform: rotate(46deg);"><path class="st0" d="M717.22,452.88c0,119.97-97.25,217.22-217.22,217.22s-217.22-97.25-217.22-217.22h-48.9    C233.88,599.86,353.03,719,500,719s266.12-119.15,266.12-266.12H717.22z" name="Layer %{number}" zoom="1" data-layer-id="5435198696571" style="fill: rgb(127, 175, 43);"></path><path class="st0" d="M474.97,717.82c0.95,0.09,1.9,0.18,2.85,0.26C476.87,718,475.92,717.91,474.97,717.82z" name="Layer %{number}" zoom="1" data-layer-id="4557439396571" style="fill: rgb(127, 175, 43);"></path><path class="st0" d="M473.46,717.68c0.5,0.05,1,0.1,1.5,0.15c-0.5-0.05-1.01-0.09-1.51-0.14    C473.46,717.68,473.46,717.68,473.46,717.68z" name="Layer %{number}" zoom="1" data-layer-id="9214413496572" style="fill: rgb(127, 175, 43);"></path><path class="st0" d="M483.33,718.49c-1.84-0.12-3.68-0.25-5.51-0.41C479.65,718.23,481.49,718.37,483.33,718.49z" name="Layer %{number}" zoom="1" data-layer-id="8310914596572" style="fill: rgb(127, 175, 43);"></path><path class="st0" d="M645.33,675.85c2.38-1.56,4.74-3.15,7.07-4.78C650.07,672.7,647.71,674.3,645.33,675.85z" name="Layer %{number}" zoom="1" data-layer-id="5921768196572" style="fill: rgb(127, 175, 43);"></path><path class="st1" d="M758.83,514.95c-0.06,0.28-0.12,0.56-0.2,0.84c-0.07,0.31-0.14,0.63-0.22,0.94c-0.18,0.73-0.36,1.45-0.55,2.17   c-0.34,1.34-0.69,2.67-1.05,4c-0.26,0.95-0.52,1.89-0.79,2.84c-0.22,0.79-0.45,1.58-0.68,2.37c-0.17,0.56-0.33,1.11-0.5,1.66   c-0.24,0.8-0.49,1.61-0.74,2.4c-0.28,0.93-0.58,1.86-0.88,2.78c-0.22,0.68-0.44,1.36-0.67,2.04l-0.75,2.22   c-0.25,0.74-0.51,1.48-0.77,2.22c-0.35,0.99-0.7,1.97-1.06,2.95c-0.75,2.04-1.52,4.07-2.31,6.08c-0.4,1.01-0.8,2.01-1.21,3.01   c-1.28,3.14-2.62,6.25-4.02,9.33c-6.19-2.17-13.35-5.83-21.61-11.54c-7.65-5.29-14.98-8.83-21.87-11.05   c5.01-11.4,9.07-23.32,12.09-35.64C726.64,511.84,745.11,514.27,758.83,514.95z" name="Layer %{number}" zoom="1" data-layer-id="8183367596572" style="fill: rgb(70, 163, 44);"></path><path class="st1" d="M673.56,654.62c-0.09,0.08-0.18,0.15-0.27,0.23c-0.88,0.76-1.77,1.52-2.67,2.26   c-2.22,1.87-4.48,3.69-6.76,5.48c-0.5,0.39-1,0.78-1.51,1.17c-2.13,1.65-4.29,3.26-6.48,4.84c-0.95,0.69-1.9,1.37-2.86,2.04   c-0.2,0.15-0.41,0.29-0.61,0.43c-2.33,1.63-4.69,3.22-7.07,4.78c-6.06-18.88-19.32-31.19-30.45-38.58   c11.35-7.08,22-15.19,31.82-24.19C661.69,621.66,669.51,638.35,673.56,654.62z" name="Layer %{number}" zoom="1" data-layer-id="3226694696572" style="fill: rgb(70, 163, 44);"></path><path class="st1" d="M547.02,665c-4.08,7.49-9.81,15.93-17.83,25.01c-8.2,9.28-11.94,19.1-13.03,28.5   c-1.29,0.08-2.57,0.15-3.87,0.21c-0.12,0.01-0.25,0.01-0.38,0.02c-1.26,0.06-2.53,0.1-3.8,0.14c-1.14,0.04-2.28,0.07-3.43,0.08   c-0.27,0.01-0.55,0.02-0.82,0.02c-1.28,0.02-2.57,0.03-3.86,0.03c-1.34,0-2.69-0.01-4.03-0.03c-0.95-0.01-1.89-0.03-2.84-0.06   c-1.23-0.03-2.47-0.07-3.7-0.12c-1.04-0.04-2.08-0.08-3.12-0.14c-1-0.05-1.99-0.11-2.98-0.17c-3.31-0.21-6.6-0.47-9.87-0.8   c3.94-18.06,17.55-30.43,21.6-47.65c1.64,0.04,3.29,0.06,4.94,0.06C516.15,670.1,531.88,668.34,547.02,665z" name="Layer %{number}" zoom="1" data-layer-id="7057201496572" style="fill: rgb(70, 163, 44);"></path><path class="st1" d="M387.56,694.15c-15.53-7.24-30.24-15.95-43.96-25.93c1.73-21.45,10.69-36.59,19.64-46.57   c11.96,9.71,24.98,18.17,38.86,25.19C389.95,659.45,386.73,676.93,387.56,694.15z" name="Layer %{number}" zoom="1" data-layer-id="1877582796572" style="fill: rgb(70, 163, 44);"></path><path class="st1" d="M308.23,554.99c-17.47,8.46-29.52,21.06-37.63,32.85c-0.45-0.75-0.89-1.5-1.33-2.26   c-0.05-0.08-0.09-0.15-0.13-0.23c-2.67-4.65-5.2-9.38-7.6-14.19c-0.45-0.91-0.89-1.82-1.34-2.73c-0.5-1.02-0.99-2.06-1.46-3.09   c-0.46-0.98-0.91-1.96-1.35-2.94c-0.05-0.09-0.09-0.19-0.13-0.28c-0.84-1.87-1.66-3.76-2.46-5.65c-0.43-1-0.84-1.99-1.25-3   c-0.41-1-0.81-2-1.21-3.01c-0.08-0.19-0.15-0.38-0.22-0.58c11.47-19.08,25.41-31.11,38.58-38.67   C294.97,526.56,300.88,541.22,308.23,554.99z" name="Layer %{number}" zoom="1" data-layer-id="7263610796572" style="fill: rgb(70, 163, 44);"></path><path class="st1" d="M252.12,549.88c0.07,0.2,0.14,0.39,0.22,0.58c-0.08-0.19-0.16-0.38-0.23-0.57   C252.11,549.89,252.11,549.88,252.12,549.88z" name="Layer %{number}" zoom="1" data-layer-id="2313486996572" style="fill: rgb(70, 163, 44);"></path><path class="st1" d="M261.54,571.16c2.4,4.81,4.93,9.54,7.6,14.19C266.46,580.71,263.93,575.98,261.54,571.16z" name="Layer %{number}" zoom="1" data-layer-id="9060283796572" style="fill: rgb(70, 163, 44);"></path><path class="st1" d="M269.27,585.58c0.44,0.76,0.88,1.51,1.33,2.26c-0.01,0-0.01,0.01-0.01,0.01   C270.14,587.1,269.7,586.34,269.27,585.58z" name="Layer %{number}" zoom="1" data-layer-id="6436920596572" style="fill: rgb(70, 163, 44);"></path><path class="st1" d="M742.43,562.8c1.4-3.08,2.74-6.19,4.02-9.33c-1.27,3.14-2.61,6.25-4.01,9.33H742.43z" name="Layer %{number}" zoom="1" data-layer-id="1954313696572" style="fill: rgb(70, 163, 44);"></path><path class="st1" d="M758.84,514.95c-0.07,0.28-0.13,0.56-0.21,0.84c0.08-0.28,0.14-0.56,0.2-0.84H758.84z" name="Layer %{number}" zoom="1" data-layer-id="5244683596572" style="fill: rgb(70, 163, 44);"></path><path class="st2" d="M500,649.63c108.66,0,196.75-88.09,196.75-196.75H303.25C303.25,561.54,391.34,649.63,500,649.63z" name="Layer %{number}" zoom="1" data-layer-id="2042689296572" style="fill: rgb(252, 81, 97);"></path><path class="st3" d="M500,592.39c77.05,0,139.5-62.46,139.5-139.5H360.5C360.5,529.93,422.95,592.39,500,592.39z" name="Layer %{number}" zoom="1" data-layer-id="4539356796572" style="fill: rgb(239, 63, 84);"></path><path class="st4" d="M500,522.64c38.52,0,69.75-31.23,69.75-69.75h-139.5C430.25,491.41,461.48,522.64,500,522.64z" name="Layer %{number}" zoom="1" data-layer-id="6027978196572" style="fill: rgb(211, 42, 70);"></path><path class="st5" d="M508.49,560.15L508.49,560.15l-0.1-0.2c0,0,0-0.01,0-0.01l-7.16-13.95l-7.16,13.95c0,0,0,0.01-0.01,0.01   l-0.1,0.2h0.01c-0.56,1.1-0.88,2.35-0.88,3.67c0,4.5,3.65,8.15,8.15,8.15s8.15-3.65,8.15-8.15   C509.38,562.49,509.05,561.25,508.49,560.15z" name="Layer %{number}" zoom="1" data-layer-id="6150636596572" style="fill: rgb(68, 28, 28);"></path><path class="st5" d="M582.26,523.39L582.26,523.39l-0.21-0.08c0,0-0.01,0-0.01,0l-14.93-4.8l4.8,14.93c0,0,0,0.01,0,0.01l0.07,0.22   l0,0c0.39,1.18,1.04,2.28,1.97,3.22c3.18,3.18,8.34,3.18,11.52,0c3.18-3.18,3.18-8.34,0-11.52   C584.54,524.43,583.43,523.78,582.26,523.39z" name="Layer %{number}" zoom="1" data-layer-id="7417201996572" style="fill: rgb(68, 28, 28);"></path><path class="st5" d="M420.88,523.39L420.88,523.39l0.21-0.08c0,0,0.01,0,0.01,0l14.93-4.8l-4.8,14.93c0,0,0,0.01,0,0.01l-0.07,0.22   l0,0c-0.39,1.18-1.04,2.28-1.97,3.22c-3.18,3.18-8.34,3.18-11.52,0c-3.18-3.18-3.18-8.34,0-11.52   C418.6,524.43,419.71,523.78,420.88,523.39z" name="Layer %{number}" zoom="1" data-layer-id="3411030996572" style="fill: rgb(68, 28, 28);"></path><path class="st0" d="M454.85,316.71c-27.89-27.89-65.93-39.44-102.24-34.68c-4.75,36.31,6.79,74.34,34.68,102.24       s65.93,39.44,102.24,34.68C494.29,382.64,482.74,344.61,454.85,316.71z" name="Layer %{number}" zoom="1" data-layer-id="4102121296572" style="fill: rgb(127, 175, 43);"></path><path class="st1" d="M352.61,282.03c-4.75,36.31,6.79,74.34,34.68,102.24s65.93,39.44,102.24,34.68L352.61,282.03z" name="Layer %{number}" zoom="1" data-layer-id="5445254396572" style="fill: rgb(70, 163, 44);"></path><path class="st0" d="M533.68,341.27c21.3-21.3,50.35-30.12,78.08-26.49c3.63,27.73-5.18,56.78-26.49,78.08       c-21.3,21.3-50.35,30.12-78.08,26.49C503.56,391.62,512.37,362.57,533.68,341.27z" name="Layer %{number}" zoom="1" data-layer-id="3219244496572" style="fill: rgb(127, 175, 43);"></path><path class="st1" d="M611.76,314.78c3.63,27.73-5.18,56.78-26.49,78.08c-21.3,21.3-50.35,30.12-78.08,26.49L611.76,314.78z" name="Layer %{number}" zoom="1" data-layer-id="2141273396572" style="fill: rgb(70, 163, 44);"></path><circle class="st0" cx="620.17" cy="419.99" r="15.02" name="Layer %{number}" zoom="1" data-layer-id="6307585696572" style="fill: rgb(127, 175, 43);"></circle><circle class="st0" cx="501.23" cy="314.78" r="10.12" name="Layer %{number}" zoom="1" data-layer-id="2465524296572" style="fill: rgb(127, 175, 43);"></circle><circle class="st0" cx="367.71" cy="412.4" r="12.5" name="Layer %{number}" zoom="1" data-layer-id="8814661896572" style="fill: rgb(127, 175, 43);"></circle></svg>