<?xml version="1.0" standalone="no"?>
<!DOCTYPE svg PUBLIC "-//W3C//DTD SVG 20010904//EN"
 "http://www.w3.org/TR/2001/REC-SVG-20010904/DTD/svg10.dtd">
<svg version="1.0" xmlns="http://www.w3.org/2000/svg"
 width="2000.000000pt" height="2000.000000pt" viewBox="0 0 2000.000000 2000.000000"
 preserveAspectRatio="xMidYMid meet">

<g transform="translate(0.000000,2000.000000) scale(0.100000,-0.100000)"
fill="#000000" stroke="none">
<path d="M8320 9240 c-14 -4 -248 -8 -521 -9 -273 -1 -969 -4 -1547 -8 l-1052
-6 0 -183 c0 -102 5 -193 10 -206 6 -13 14 -77 19 -143 5 -66 14 -138 20 -160
6 -22 11 -63 11 -90 0 -28 5 -56 11 -62 6 -6 13 -39 16 -74 3 -35 11 -78 19
-96 8 -17 14 -49 14 -71 0 -22 5 -42 10 -44 6 -2 13 -28 17 -58 3 -30 10 -58
15 -61 5 -3 11 -23 14 -45 3 -21 12 -53 20 -71 8 -17 14 -42 14 -55 0 -12 7
-32 15 -42 8 -11 15 -31 15 -45 0 -14 7 -35 15 -45 8 -11 15 -32 15 -47 0 -14
7 -32 15 -39 8 -7 15 -23 15 -37 0 -13 7 -31 15 -39 8 -9 15 -27 15 -40 0 -14
7 -32 15 -40 8 -9 15 -26 15 -38 0 -13 7 -29 15 -36 8 -7 15 -23 15 -35 0 -12
7 -28 15 -35 8 -7 15 -23 15 -35 0 -13 7 -25 15 -29 8 -3 15 -15 15 -26 0 -12
7 -28 15 -36 8 -9 15 -24 15 -33 0 -10 7 -24 15 -31 8 -7 15 -21 15 -31 0 -11
4 -19 10 -19 5 0 13 -12 16 -27 4 -15 13 -34 21 -41 7 -7 13 -20 13 -28 0 -9
7 -22 15 -30 8 -9 15 -24 15 -35 0 -10 4 -19 9 -19 10 0 15 -9 61 -97 14 -26
29 -51 33 -54 8 -6 28 -37 44 -69 4 -8 13 -21 20 -28 7 -7 13 -20 13 -27 0 -8
6 -18 13 -22 14 -9 32 -37 47 -70 5 -13 14 -23 20 -23 5 0 10 -7 10 -15 0 -8
5 -15 10 -15 6 0 15 -10 20 -22 12 -29 32 -59 46 -73 23 -22 74 -93 74 -104 0
-6 7 -11 15 -11 8 0 15 -7 15 -15 0 -8 4 -15 8 -15 10 0 82 -96 82 -110 0 -5
7 -10 15 -10 8 0 15 -7 15 -15 0 -8 7 -15 15 -15 8 0 15 -4 15 -9 0 -27 475
-501 501 -501 5 0 9 -7 9 -15 0 -8 4 -15 10 -15 12 0 104 -69 108 -81 2 -5 10
-9 18 -9 8 0 14 -7 14 -15 0 -8 5 -15 11 -15 11 0 82 -51 104 -74 14 -14 44
-34 73 -46 12 -5 22 -14 22 -20 0 -5 7 -10 15 -10 8 0 15 -4 15 -9 0 -9 29
-28 78 -50 12 -6 22 -15 22 -21 0 -5 6 -10 14 -10 8 0 21 -6 28 -12 19 -17 48
-36 76 -48 12 -5 22 -14 22 -20 0 -5 9 -10 19 -10 11 0 23 -5 26 -11 4 -5 17
-15 28 -20 12 -5 36 -18 52 -29 17 -11 42 -25 58 -31 15 -6 27 -15 27 -20 0
-5 9 -9 19 -9 11 0 26 -6 33 -13 7 -8 26 -17 41 -21 15 -3 27 -11 27 -16 0 -6
9 -10 19 -10 11 0 26 -7 34 -15 8 -7 26 -17 41 -21 14 -3 26 -10 26 -15 0 -5
11 -9 24 -9 13 0 29 -7 36 -15 7 -8 21 -15 31 -15 9 0 24 -7 33 -15 8 -8 23
-15 34 -15 11 0 25 -7 32 -15 7 -8 25 -15 40 -15 15 0 33 -7 40 -15 7 -8 22
-15 34 -15 12 0 31 -7 42 -15 10 -8 29 -15 40 -15 12 0 27 -7 34 -15 7 -8 25
-15 39 -15 15 0 36 -7 47 -15 10 -8 31 -15 45 -15 14 0 34 -7 45 -15 10 -8 33
-15 50 -15 16 0 39 -7 50 -15 10 -8 33 -15 49 -15 17 0 41 -6 55 -13 15 -8 48
-17 74 -20 27 -4 54 -11 60 -16 6 -4 35 -11 65 -14 30 -4 59 -11 65 -17 5 -5
29 -10 53 -10 23 0 62 -6 85 -14 24 -8 77 -17 118 -21 41 -4 80 -10 85 -14 6
-5 65 -11 133 -15 68 -3 132 -10 142 -16 25 -14 785 -14 810 0 10 6 74 13 142
16 68 4 128 11 134 15 6 5 44 11 85 15 41 3 93 12 117 20 23 8 65 14 92 14 27
0 51 4 55 9 3 6 27 13 53 16 26 3 55 11 65 16 10 6 42 13 70 16 29 3 55 10 58
15 3 5 26 12 50 15 24 3 53 12 64 19 11 8 33 14 50 14 16 0 39 7 49 15 11 8
31 15 45 15 14 0 35 7 45 15 11 8 31 15 44 15 13 0 30 7 38 15 9 8 24 15 34
15 10 0 31 7 46 15 16 8 37 15 47 15 10 0 25 7 33 15 9 8 25 15 37 15 12 0 31
7 41 15 11 8 27 15 37 15 9 0 22 7 29 15 7 8 21 15 32 15 11 0 26 7 34 15 9 8
24 15 35 15 10 0 19 4 19 9 0 5 10 13 23 16 39 12 212 100 220 113 4 6 16 12
25 12 10 0 23 5 29 11 13 13 30 23 100 59 26 14 51 29 54 33 8 11 47 34 72 43
9 3 17 10 17 14 0 5 10 12 23 16 12 4 38 19 57 34 19 15 43 30 53 33 9 4 17
11 17 17 0 5 6 10 14 10 8 0 16 3 18 8 5 11 66 52 78 52 5 0 10 4 10 8 0 8 95
82 105 82 3 0 16 11 28 24 29 31 115 96 127 96 6 0 10 7 10 15 0 8 4 15 8 15
27 0 532 505 532 532 0 4 7 8 15 8 8 0 15 4 15 10 0 12 69 104 81 108 5 2 9
10 9 18 0 8 7 14 15 14 8 0 15 5 15 11 0 11 51 82 74 104 14 14 34 44 46 73 5
12 14 22 20 22 5 0 10 7 10 15 0 8 5 15 10 15 6 0 15 10 20 23 15 33 33 61 48
70 6 4 12 14 12 22 0 7 6 20 13 27 7 7 16 20 20 28 16 32 36 63 44 69 4 3 18
26 31 51 13 25 32 59 43 75 10 17 24 42 30 58 6 15 15 27 20 27 5 0 9 9 9 19
0 11 6 26 13 33 8 7 17 26 21 41 3 15 10 27 15 27 5 0 12 14 16 30 4 17 11 30
16 30 5 0 9 9 9 19 0 11 7 26 15 35 8 8 15 24 15 36 0 11 7 23 15 26 8 4 15
16 15 29 0 12 7 28 15 35 8 7 15 23 15 35 0 12 7 28 15 35 8 7 15 23 15 36 0
12 7 29 15 38 8 8 15 26 15 40 0 13 7 31 15 40 8 8 15 26 15 39 0 14 7 30 15
37 8 7 15 25 15 39 0 15 7 36 15 47 8 10 15 31 15 45 0 14 7 34 15 45 8 10 15
33 15 49 0 17 6 39 14 50 7 11 16 40 19 64 3 24 10 47 15 50 5 3 12 30 15 60
4 30 10 57 15 60 5 3 11 32 14 64 3 33 9 62 15 65 6 4 13 37 15 75 3 37 10 73
16 80 5 6 12 50 16 96 4 47 11 90 15 95 5 6 11 64 15 129 3 65 11 127 16 137
6 10 10 101 10 204 l0 186 -582 1 c-321 1 -1026 6 -1568 11 -1322 12 -4449 18
-4480 8z"/>
</g>
</svg>
